<?xml version="1.0" encoding="iso-8859-1"?>
<!-- Generator: Adobe Illustrator 19.0.0, SVG Export Plug-In . SVG Version: 6.00 Build 0)  -->
<svg version="1.1" id="Capa_1" xmlns="http://www.w3.org/2000/svg" xmlns:xlink="http://www.w3.org/1999/xlink" x="0px" y="0px"
	 viewBox="0 0 480 480" style="enable-background:new 0 0 480 480;" xml:space="preserve">
<path style="fill:#B139D8;" d="M472,296V8H8v288H472z M448,40h-16H448z M416,40h-16H416z"/>
<path style="fill:#9C32BF;" d="M472,296V8H240v288H472z M460,40h-8H460z M444,40h-8H444z"/>
<g>
	<circle style="fill:#FFC931;" cx="240" cy="80" r="40"/>
	<path style="fill:#FFC931;" d="M304,168l21.736,18.12c14.216,11.848,35.48,9.2,46.368-5.76L416,120l-32-24l-40,56l-26.856-21.48
		c-8.504-6.808-19.08-10.52-29.984-10.52H240h-47.16c-10.896,0-21.472,3.712-29.984,10.52L136,152L96,96l-32,24l43.896,60.352
		c10.88,14.96,32.152,17.608,46.368,5.76L176,168v56h128V168z M240,216v-72V216z"/>
</g>
<g>
	<circle style="fill:#406AF2;" cx="112" cy="360" r="40"/>
	<path style="fill:#406AF2;" d="M112,400c-35.344,0-64,28.656-64,64v8h128v-8C176,428.656,147.344,400,112,400z"/>
	<circle style="fill:#406AF2;" cx="240" cy="360" r="40"/>
	<path style="fill:#406AF2;" d="M240,400c-35.344,0-64,28.656-64,64v8h128v-8C304,428.656,275.344,400,240,400z"/>
	<circle style="fill:#406AF2;" cx="368" cy="360" r="40"/>
	<path style="fill:#406AF2;" d="M304,464v8h128v-8c0-35.344-28.656-64-64-64S304,428.656,304,464z"/>
</g>
<polygon style="fill:#4BDDDD;" points="304,224 176,224 64,224 64,256 96,256 96,296 96,320 112,320 240,320 368,320 384,320 
	384,296 384,256 416,256 416,224 "/>
<polygon style="fill:#42C2C2;" points="240,224 240,320 368,320 384,320 384,296 384,256 416,256 416,224 304,224 "/>
<g>
	<path style="fill:#2A0E54;" d="M472,0H8C3.576,0,0,3.584,0,8v288c0,4.416,3.576,8,8,8h80v14.496C73.68,326.808,64,342.28,64,360
		c0,15.56,7.48,29.376,18.992,38.152C57.704,409.336,40,434.624,40,464v8c0,4.416,3.576,8,8,8h128h128h128c4.424,0,8-3.584,8-8v-8
		c0-29.376-17.704-54.664-42.992-65.848C408.52,389.376,416,375.56,416,360c0-17.72-9.68-33.192-24-41.504V304h80
		c4.424,0,8-3.584,8-8V8C480,3.584,476.424,0,472,0z M80,360c0-17.648,14.352-32,32-32s32,14.352,32,32s-14.352,32-32,32
		S80,377.648,80,360z M338.992,398.152c-15.104,6.68-27.464,18.392-34.992,33.008c-7.528-14.616-19.888-26.328-34.992-33.008
		C280.52,389.376,288,375.56,288,360c0-12.304-4.688-23.496-12.32-32h56.648c-7.64,8.504-12.328,19.696-12.328,32
		C320,375.56,327.48,389.376,338.992,398.152z M272,360c0,17.648-14.352,32-32,32s-32-14.352-32-32s14.352-32,32-32
		S272,342.352,272,360z M210.992,398.152c-15.104,6.68-27.464,18.392-34.992,33.008c-7.528-14.616-19.888-26.328-34.992-33.008
		C152.52,389.376,160,375.56,160,360c0-12.304-4.688-23.496-12.32-32h56.648c-7.64,8.504-12.328,19.696-12.328,32
		C192,375.56,199.48,389.376,210.992,398.152z M112,408c30.872,0,56,25.12,56,56H56C56,433.12,81.128,408,112,408z M240,408
		c30.872,0,56,25.12,56,56H184C184,433.12,209.128,408,240,408z M424,464H312c0-30.88,25.128-56,56-56S424,433.12,424,464z M368,392
		c-17.648,0-32-14.352-32-32s14.352-32,32-32s32,14.352,32,32S385.648,392,368,392z M104,312v-56c0-4.416-3.576-8-8-8H72v-16h104
		h128h104v16h-24h-24v16h16v48H104z M179.392,160.752c-2.784-1.304-6.12-0.888-8.512,1.104l-21.744,18.12
		c-5.16,4.304-11.632,6.2-18.32,5.376c-6.656-0.832-12.496-4.272-16.448-9.704l-39.256-53.984l19.144-14.352l35.24,49.336
		c1.272,1.792,3.232,2.976,5.408,3.28c2.176,0.32,4.384-0.304,6.104-1.68l26.848-21.48c7.056-5.656,15.936-8.768,24.976-8.768
		h94.328c9.048,0,17.92,3.112,24.984,8.768l26.848,21.48c1.72,1.376,3.936,1.992,6.104,1.68c2.168-0.304,4.136-1.488,5.408-3.28
		l35.24-49.336l19.144,14.352l-39.256,53.984c-3.944,5.432-9.792,8.872-16.448,9.704c-6.68,0.824-13.168-1.08-18.32-5.376
		l-21.744-18.12c-2.384-1.984-5.712-2.408-8.512-1.104C297.8,162.072,296,164.896,296,168v48h-48v-72h-16v72h-48v-48
		C184,164.896,182.2,162.072,179.392,160.752z M208,80c0-17.648,14.352-32,32-32s32,14.352,32,32s-14.352,32-32,32
		S208,97.648,208,80z M464,288h-72v-24h24c4.424,0,8-3.584,8-8v-32c0-4.416-3.576-8-8-8H312v-30.92l8.616,7.184
		c8.48,7.064,19.648,10.328,30.536,8.968c10.936-1.352,20.928-7.248,27.416-16.168l43.896-60.352
		c2.568-3.536,1.832-8.488-1.672-11.104l-32-24c-1.72-1.296-3.856-1.832-6.024-1.504c-2.128,0.328-4.032,1.504-5.28,3.256
		L342.4,140.48l-20.248-16.2c-9.896-7.92-22.32-12.28-34.984-12.28H275.68c7.632-8.504,12.32-19.696,12.32-32
		c0-26.472-21.528-48-48-48s-48,21.528-48,48c0,12.304,4.688,23.496,12.32,32h-11.488c-12.672,0-25.096,4.36-34.984,12.272
		L137.6,140.48l-35.096-49.128c-1.248-1.752-3.16-2.928-5.28-3.256c-2.168-0.32-4.304,0.216-6.024,1.504l-32,24
		c-3.504,2.624-4.24,7.568-1.672,11.104l43.896,60.352c6.488,8.912,16.48,14.808,27.416,16.168
		c10.872,1.352,22.064-1.904,30.536-8.968L168,185.08V216H64c-4.424,0-8,3.584-8,8v32c0,4.416,3.576,8,8,8h24v24H16V16h448V288z"/>
	<rect x="432" y="32" style="fill:#2A0E54;" width="16" height="16"/>
	<rect x="400" y="32" style="fill:#2A0E54;" width="16" height="16"/>
	<rect x="368" y="32" style="fill:#2A0E54;" width="16" height="16"/>
	<rect x="328" y="248" style="fill:#2A0E54;" width="16" height="16"/>
</g>
<g>
</g>
<g>
</g>
<g>
</g>
<g>
</g>
<g>
</g>
<g>
</g>
<g>
</g>
<g>
</g>
<g>
</g>
<g>
</g>
<g>
</g>
<g>
</g>
<g>
</g>
<g>
</g>
<g>
</g>
</svg>
