<svg id="Layer_1" height="512" viewBox="0 0 512 512" width="512" xmlns="http://www.w3.org/2000/svg" data-name="Layer 1"><g fill="#b0b5ca"><path d="m374 250h71v12h-71z"/><path d="m406.589 329.5a32.526 32.526 0 0 0 -32.429-32.5h-10.16v12h10.16a20.512 20.512 0 0 1 20.429 20.5 32.527 32.527 0 0 0 32.43 32.5h4.981v-12h-4.981a20.513 20.513 0 0 1 -20.43-20.5z"/><path d="m406.589 182.5a20.513 20.513 0 0 1 20.43-20.5h4.981v-12h-4.981a32.527 32.527 0 0 0 -32.43 32.5 20.512 20.512 0 0 1 -20.429 20.5h-11.16v12h11.16a32.526 32.526 0 0 0 32.429-32.5z"/><path d="m67 250h71v12h-71z"/><path d="m105.411 182.5a32.526 32.526 0 0 0 32.429 32.5h10.16v-12h-10.16a20.512 20.512 0 0 1 -20.429-20.5 32.527 32.527 0 0 0 -32.43-32.5h-4.981v12h4.981a20.513 20.513 0 0 1 20.43 20.5z"/><path d="m137.84 297a32.526 32.526 0 0 0 -32.429 32.5 20.513 20.513 0 0 1 -20.43 20.5h-4.981v12h4.981a32.527 32.527 0 0 0 32.43-32.5 20.512 20.512 0 0 1 20.429-20.5h11.16v-12z"/><path d="m250 374h12v71h-12z"/><path d="m203 374.16a20.512 20.512 0 0 1 -20.5 20.429 32.527 32.527 0 0 0 -32.5 32.43v4.981h12v-4.981a20.513 20.513 0 0 1 20.5-20.43 32.526 32.526 0 0 0 32.5-32.429v-10.16h-12z"/><path d="m329.5 394.589a20.512 20.512 0 0 1 -20.5-20.429v-11.16h-12v11.16a32.526 32.526 0 0 0 32.5 32.429 20.513 20.513 0 0 1 20.5 20.43v4.981h12v-4.981a32.527 32.527 0 0 0 -32.5-32.43z"/><path d="m250 65.852h12v71.224h-12z"/><path d="m309.02 147.46h-12v-10.62a32.466 32.466 0 0 1 32.43-32.429 20.453 20.453 0 0 0 20.429-20.43v-4.946h12v4.946a32.466 32.466 0 0 1 -32.429 32.43 20.452 20.452 0 0 0 -20.43 20.429z"/><path d="m214.98 147.879h-12v-11.039a20.452 20.452 0 0 0 -20.43-20.429 32.466 32.466 0 0 1 -32.429-32.43v-4.946h12v4.946a20.453 20.453 0 0 0 20.429 20.43 32.466 32.466 0 0 1 32.43 32.429z"/></g><circle cx="256.107" cy="256" fill="#53d8d8" r="120.991"/><path d="m165.7 244.127a121.033 121.033 0 0 1 105.323-108.2q-1.515-.187-3.043-.339a120.991 120.991 0 1 0 3.211 240.475 120.992 120.992 0 0 1 -105.491-131.936z" fill="#49adaa"/><g id="_Group_4" data-name=" Group 4"><g id="_Group_5" data-name=" Group 5"><g id="_Path_2" data-name=" Path 2"><path d="m226.485 204.815a6 6 0 0 1 -6-6v-22.029a6 6 0 0 1 12 0v22.029a6 6 0 0 1 -6 6z" fill="#6d7486"/></g><g id="_Path_3" data-name=" Path 3"><path d="m286.084 204.815a6 6 0 0 1 -6-6v-22.029a6 6 0 0 1 12 0v22.029a6 6 0 0 1 -6 6z" fill="#6d7486"/></g></g><g id="_Group_6" data-name=" Group 6"><g id="_Path_4" data-name=" Path 4"><path d="m226.485 341.214a6 6 0 0 1 -6-6v-21.726a6 6 0 1 1 12 0v21.726a6 6 0 0 1 -6 6z" fill="#6d7486"/></g><g id="_Path_5" data-name=" Path 5"><path d="m286.084 341.214a6 6 0 0 1 -6-6v-21.726a6 6 0 0 1 12 0v21.726a6 6 0 0 1 -6 6z" fill="#6d7486"/></g></g></g><g id="_Group_7" data-name=" Group 7"><g id="_Group_8" data-name=" Group 8"><g id="_Path_6" data-name=" Path 6"><path d="m335.5 232.2h-21.728a6 6 0 0 1 0-12h21.728a6 6 0 0 1 0 12z" fill="#6d7486"/></g><g id="_Path_7" data-name=" Path 7"><path d="m335.5 291.8h-21.728a6 6 0 0 1 0-12h21.728a6 6 0 0 1 0 12z" fill="#6d7486"/></g></g><g id="_Group_9" data-name=" Group 9"><g id="_Path_8" data-name=" Path 8"><path d="m198.8 232.2h-21.73a6 6 0 0 1 0-12h21.73a6 6 0 0 1 0 12z" fill="#6d7486"/></g><g id="_Path_9" data-name=" Path 9"><path d="m198.8 291.8h-21.73a6 6 0 0 1 0-12h21.73a6 6 0 0 1 0 12z" fill="#6d7486"/></g></g></g><g id="_Path_2-2" data-name=" Path 2"><path d="m256.285 204.815a6 6 0 0 1 -6-6v-22.029a6 6 0 1 1 12 0v22.029a6 6 0 0 1 -6 6z" fill="#6d7486"/></g><g id="_Path_4-2" data-name=" Path 4"><path d="m256.285 341.214a6 6 0 0 1 -6-6v-21.726a6 6 0 0 1 12 0v21.726a6 6 0 0 1 -6 6z" fill="#6d7486"/></g><g id="_Path_6-2" data-name=" Path 6"><path d="m335.5 262h-21.728a6 6 0 1 1 0-12h21.728a6 6 0 0 1 0 12z" fill="#6d7486"/></g><g id="_Path_8-2" data-name=" Path 8"><path d="m198.8 262h-21.73a6 6 0 0 1 0-12h21.73a6 6 0 1 1 0 12z" fill="#6d7486"/></g><path d="m461.868 323.931a31.947 31.947 0 1 0 22.591 9.357 31.741 31.741 0 0 0 -22.591-9.357z" fill="#5fa8ed"/><path d="m461.868 188.069a31.947 31.947 0 1 0 -22.591-9.357 31.739 31.739 0 0 0 22.591 9.357z" fill="#5fa8ed"/><path d="m50.132 124.173a31.947 31.947 0 1 0 22.591 9.357 31.739 31.739 0 0 0 -22.591-9.357z" fill="#5fa8ed"/><path d="m50.132 323.931a31.947 31.947 0 1 0 22.591 9.357 31.739 31.739 0 0 0 -22.591-9.357z" fill="#5fa8ed"/><path d="m256 5a31.948 31.948 0 0 0 -22.591 54.539 31.948 31.948 0 0 0 45.182-45.182 31.739 31.739 0 0 0 -22.591-9.357z" fill="#5fa8ed"/><path d="m256 443.1a31.947 31.947 0 1 0 22.591 9.357 31.739 31.739 0 0 0 -22.591-9.357z" fill="#5fa8ed"/><path d="m497.643 233.409a31.95 31.95 0 1 0 9.357 22.591 31.743 31.743 0 0 0 -9.357-22.591z" fill="#e87187"/><path d="m36.948 224.052a31.947 31.947 0 1 0 22.591 9.357 31.743 31.743 0 0 0 -22.591-9.357z" fill="#e87187"/><path d="m355.879 18.184a31.947 31.947 0 1 0 22.591 9.357 31.739 31.739 0 0 0 -22.591-9.357z" fill="#e87187"/><path d="m156.121 18.184a31.947 31.947 0 1 0 22.591 9.357 31.739 31.739 0 0 0 -22.591-9.357z" fill="#e87187"/><path d="m156.121 429.92a31.947 31.947 0 1 0 22.591 9.357 31.739 31.739 0 0 0 -22.591-9.357z" fill="#e87187"/><path d="m355.879 429.92a31.947 31.947 0 1 0 22.591 9.357 31.739 31.739 0 0 0 -22.591-9.357z" fill="#e87187"/><path d="m235 162.924a6 6 0 0 1 -1.186-11.881c1.818-.368 3.668-.693 5.5-.967a6 6 0 1 1 1.769 11.869c-1.627.243-3.271.532-4.886.859a6.052 6.052 0 0 1 -1.197.12z" fill="#f4f8fc"/><path d="m172.467 203.392a6 6 0 0 1 -4.864-9.507 108.364 108.364 0 0 1 45.483-36.406 6 6 0 1 1 4.7 11.042 96.369 96.369 0 0 0 -40.446 32.379 5.99 5.99 0 0 1 -4.873 2.492z" fill="#f4f8fc"/><path d="m312.47 215.82v80.36a16 16 0 0 1 -16 16h-80.37a16 16 0 0 1 -16-16v-80.36a16 16 0 0 1 16-16h80.37a16 16 0 0 1 16 16z" fill="#f3ce7d"/><path d="m293.43 218.86v74.28h-74.29v-74.28z" fill="#b59a6b"/><path d="m237.54 237.25h37.49v37.5h-37.49z" fill="#f3ce7d"/></svg>