<svg height="512" viewBox="0 0 128 128" width="512" xmlns="http://www.w3.org/2000/svg"><g id="Circle_Grid" data-name="Circle Grid"><circle cx="64" cy="64" fill="#f6c863" r="64"/></g><g id="icon"><path d="m94.336 32.034a.825.825 0 0 1 .825.825v11.379a0 0 0 0 1 0 0h-1.651a0 0 0 0 1 0 0v-11.379a.825.825 0 0 1 .825-.825z" fill="#62667c"/><path d="m91.071 99.267h-40.69a4.312 4.312 0 0 1 -4.307-4.307v-5.509h2.085v5.509a2.225 2.225 0 0 0 2.223 2.222h40.69a2.225 2.225 0 0 0 2.222-2.222v-38.86h2.085v38.86a4.312 4.312 0 0 1 -4.308 4.307z" fill="#62667c"/><path d="m83.355 105h-39.069a4.413 4.413 0 0 1 -4.408-4.408v-11.992h2.085v11.988a2.326 2.326 0 0 0 2.324 2.324h39.068a2.326 2.326 0 0 0 2.324-2.324v-41.626h2.085v41.63a4.413 4.413 0 0 1 -4.409 4.408z" fill="#62667c"/><path d="m45.4 86.411h3.433v4.385h-3.433z" fill="#ef5261"/><path d="m39.204 86.411h3.433v4.385h-3.433z" fill="#2cbfae"/><rect fill="#575b6d" height="64.106" rx="2.78" width="49.686" x="30.418" y="23"/><path d="m33.774 28.038h42.974v31.271h-42.974z" fill="#69b0ee"/><rect fill="#ef5261" height="14.883" rx=".695" width="4.604" x="92.034" y="42.921"/><rect fill="#da364c" height="1.585" rx=".793" width="6.493" x="91.089" y="44.912"/><path d="m86.72 34.741a.825.825 0 0 1 .825.825v11.38a0 0 0 0 1 0 0h-1.645a0 0 0 0 1 0 0v-11.38a.825.825 0 0 1 .825-.825z" fill="#62667c"/><rect fill="#2cbfae" height="14.883" rx=".695" width="4.604" x="84.419" y="45.628"/><rect fill="#16a897" height="1.585" rx=".793" width="6.493" x="83.474" y="47.619"/><g fill="#dbd8dd"><rect height="5.863" rx=".586" width="1.173" x="54.501" y="31.449"/><rect height="5.863" rx=".586" transform="matrix(.866 -.5 .5 .866 -11.624 29.101)" width="1.173" x="47.904" y="33.31"/><rect height="5.863" rx=".586" transform="matrix(.5 -.866 .866 .5 -13.784 58.428)" width="1.173" x="43.122" y="38.219"/><rect height="5.863" rx=".586" transform="matrix(0 -1 1 0 -5.773 89.816)" width="1.173" x="41.435" y="44.862"/><rect height="5.863" rx=".586" transform="matrix(0 1 -1 0 115.947 -21.054)" width="1.173" x="67.914" y="44.515"/><rect height="5.863" rx=".586" transform="matrix(.5 .866 -.866 .5 68.697 -37.287)" width="1.173" x="66.054" y="37.918"/><rect height="5.863" rx=".586" transform="matrix(.866 .5 -.5 .866 26.304 -26.033)" width="1.173" x="61.144" y="33.136"/><circle cx="55.261" cy="72.99" r="7.948"/></g><circle cx="55.261" cy="72.99" fill="#bbbbcd" r="6.254"/><path d="m54.414 66.341h1.694v13.298h-1.694z" fill="#dbd8dd" transform="matrix(.707 .707 -.707 .707 67.798 -17.697)"/></g></svg>